<svg width="28" height="28" viewBox="0 0 28 28" fill="none" xmlns="http://www.w3.org/2000/svg">
<path d="M5.54167 28H22.4583C25.5138 28 28 25.5138 28 22.4583V5.54167C28 2.48617 25.5138 0 22.4583 0H5.54167C2.48617 0 0 2.48617 0 5.54167V22.4583C0 25.5138 2.48617 28 5.54167 28ZM1.75 5.54167C1.75 3.451 3.451 1.75 5.54167 1.75H22.4583C24.549 1.75 26.25 3.451 26.25 5.54167V22.4583C26.25 24.549 24.549 26.25 22.4583 26.25H5.54167C3.451 26.25 1.75 24.549 1.75 22.4583V5.54167Z" fill="white"/>
<path d="M14 21C17.8597 21 21 17.8597 21 14C21 10.1403 17.8597 7 14 7C10.1403 7 7 10.1403 7 14C7 17.8597 10.1403 21 14 21ZM14 8.71289C16.9153 8.71289 19.2871 11.0847 19.2871 14C19.2871 16.9153 16.9153 19.2871 14 19.2871C11.0847 19.2871 8.71289 16.9153 8.71289 14C8.71289 11.0847 11.0847 8.71289 14 8.71289Z" fill="white"/>
<path d="M20.9994 9C22.1403 9 23 8.14003 23 7C23 5.81116 22.0952 5 21.0006 5C19.8597 5 19 5.85996 19 7C19 8.18652 19.9002 9 20.9994 9ZM21.2042 6.80825C21.5699 7.13248 20.7356 7.52644 20.7356 7.00116C20.7356 6.68739 21.1603 6.76874 21.2042 6.80825Z" fill="white"/>
</svg>
